<?xml version="1.0" standalone="no"?>
<!DOCTYPE svg PUBLIC "-//W3C//DTD SVG 20010904//EN"
 "http://www.w3.org/TR/2001/REC-SVG-20010904/DTD/svg10.dtd">
<svg version="1.0" xmlns="http://www.w3.org/2000/svg"
 width="524.000000pt" height="159.000000pt" viewBox="0 0 524.000000 159.000000"
 preserveAspectRatio="xMidYMid meet">
<metadata>
Created by potrace 1.16, written by Peter Selinger 2001-2019
</metadata>
<g transform="translate(0.000000,159.000000) scale(0.100000,-0.100000)"
fill="#000000" stroke="none">
<path d="M3650 1523 c0 -29 -16 -46 -47 -48 -15 -2 -29 -3 -31 -4 -2 -1 8 -11
23 -23 22 -20 24 -27 16 -56 -10 -34 -5 -35 31 -4 15 13 20 12 44 -7 32 -25
38 -23 25 13 -6 14 -9 26 -7 26 1 0 31 -12 67 -26 75 -31 122 -78 143 -145 34
-111 93 -213 159 -276 54 -51 66 -69 72 -105 4 -24 20 -84 36 -135 51 -167 48
-309 -7 -356 -40 -34 -27 -57 30 -57 39 0 49 4 68 30 l22 30 12 -29 c16 -37
39 -41 233 -41 179 0 235 12 316 66 28 18 64 55 82 81 51 78 63 136 63 316 0
177 6 200 65 257 25 24 45 34 79 37 25 3 46 8 46 10 0 2 -11 24 -25 48 -18 30
-38 48 -66 59 -45 18 -126 21 -180 6 -48 -13 -118 -75 -140 -124 -25 -55 -24
-160 2 -256 26 -96 35 -241 19 -299 -12 -46 -63 -107 -80 -96 -6 3 -10 47 -10
98 0 107 -21 231 -49 286 -27 52 -69 92 -133 129 -30 16 -59 36 -65 44 -7 8
-15 50 -17 94 -4 63 -12 93 -40 149 -19 39 -40 90 -48 114 -7 25 -18 46 -24
48 -6 2 -18 -15 -27 -37 -12 -32 -21 -40 -40 -40 -13 0 -30 -7 -38 -16 -7 -8
-30 -24 -52 -35 -35 -18 -39 -24 -35 -52 3 -18 8 -40 13 -49 6 -15 2 -18 -30
-18 -55 0 -70 13 -109 92 -19 40 -54 95 -77 121 -37 43 -46 48 -71 43 -19 -4
-51 3 -94 21 -66 27 -66 27 -44 45 15 12 18 19 9 20 -8 0 -18 2 -24 3 -5 2
-15 3 -22 4 -6 0 -14 15 -18 31 -7 32 -25 41 -25 13z"/>
<path d="M665 1067 c-60 -10 -112 -20 -114 -22 -2 -3 7 -13 20 -24 l24 -19
-18 -64 c-10 -34 -31 -120 -48 -190 -17 -71 -34 -128 -38 -128 -3 0 -19 39
-36 88 -16 48 -42 114 -57 147 -42 89 -38 168 10 198 26 16 21 16 -123 16 -82
0 -168 -4 -190 -8 l-40 -7 31 -8 c17 -4 42 -18 55 -32 23 -25 24 -34 31 -222
9 -250 3 -338 -26 -367 -12 -12 -29 -24 -37 -27 -38 -14 8 -15 130 -5 l134 12
-47 23 c-60 31 -71 49 -92 155 -15 77 -16 96 -4 150 7 34 16 103 19 154 5 82
13 115 25 102 6 -6 197 -455 220 -516 7 -18 15 -35 18 -38 2 -3 11 34 18 82 7
48 22 117 32 153 11 36 21 74 23 85 2 11 20 60 41 110 32 76 39 86 44 65 15
-54 33 -436 22 -456 -6 -11 -33 -31 -61 -44 -28 -13 -51 -26 -51 -29 0 -9 287
3 296 11 4 4 -6 12 -22 18 -50 18 -75 34 -85 52 -11 20 -13 451 -3 506 4 19
21 48 40 67 l33 33 -32 -1 c-18 -1 -81 -10 -142 -20z"/>
<path d="M2576 1035 c-14 -30 -29 -55 -34 -55 -5 0 -26 14 -47 30 -47 38 -69
43 -148 38 -52 -3 -75 -11 -137 -48 -65 -39 -79 -52 -103 -100 -64 -130 -84
-283 -51 -398 16 -56 28 -71 101 -128 81 -65 196 -80 271 -34 45 28 145 190
128 207 -4 5 -14 -1 -21 -12 -25 -35 -89 -96 -120 -112 -16 -9 -57 -24 -89
-34 -51 -16 -62 -16 -86 -4 -80 41 -98 95 -105 317 -7 198 -3 209 86 264 93
56 159 44 262 -46 41 -37 47 -46 47 -82 0 -32 -6 -46 -31 -69 -56 -53 -94 -49
-119 11 -17 40 2 88 38 97 30 7 53 -17 45 -47 -7 -25 -29 -26 -42 -2 -9 14
-10 13 -11 -12 0 -27 2 -28 32 -22 18 3 36 12 40 19 10 16 10 49 -1 66 -12 19
-86 9 -112 -15 -37 -33 -19 -113 32 -139 29 -16 35 -16 74 -1 65 25 80 49 103
161 21 100 34 205 27 205 -2 0 -15 -25 -29 -55z"/>
<path d="M3380 985 c0 -3 10 -19 22 -36 18 -23 24 -47 26 -105 4 -75 -3 -89
-29 -58 -40 49 -124 57 -198 19 -87 -43 -117 -115 -109 -259 5 -90 23 -134 69
-168 65 -48 172 -28 234 45 l35 41 0 -48 0 -47 63 7 c34 4 66 9 70 11 4 3 -11
14 -35 26 l-43 22 -11 100 c-10 88 -9 275 1 330 2 11 4 30 4 42 1 17 15 30 59
52 l57 30 -107 1 c-60 0 -108 -2 -108 -5z m-41 -200 c37 -19 81 -71 81 -96 0
-11 -18 -32 -42 -49 -70 -51 -131 -33 -97 29 19 34 46 39 51 9 4 -21 5 -21 13
-5 11 25 -16 51 -44 42 -23 -7 -51 -53 -51 -84 0 -22 35 -51 61 -51 9 0 37 11
63 25 l46 24 0 -59 c0 -53 -3 -63 -37 -103 -45 -53 -70 -67 -122 -67 -45 0
-73 26 -96 90 -21 57 -14 102 29 195 52 112 82 133 145 100z"/>
<path d="M1862 948 c-19 -19 -14 -56 8 -68 21 -11 25 -27 12 -47 -4 -7 -32
-16 -62 -21 l-55 -9 45 -20 c61 -28 75 -46 73 -102 -1 -25 -2 -87 -2 -136 0
-81 -3 -95 -26 -129 -14 -21 -25 -40 -23 -42 2 -1 36 2 76 8 47 8 72 16 72 25
0 7 -4 13 -8 13 -5 0 -17 15 -27 34 -16 30 -17 52 -13 200 6 158 5 166 -13
166 -28 0 -24 39 7 71 22 23 24 30 15 48 -13 24 -59 29 -79 9z"/>
<path d="M3743 855 c-64 -19 -122 -71 -151 -133 -20 -45 -24 -65 -20 -116 6
-73 24 -115 76 -174 32 -38 44 -45 84 -49 28 -3 61 0 80 7 45 18 118 78 118
97 0 11 -10 7 -37 -15 -55 -43 -77 -52 -121 -52 -32 0 -45 6 -65 30 -25 29
-64 127 -54 136 8 8 190 9 228 1 35 -7 37 -6 43 24 12 60 6 143 -12 179 -30
59 -100 87 -169 65z m92 -27 c33 -15 40 -45 29 -127 l-9 -66 -100 -12 c-55 -7
-103 -9 -108 -4 -13 13 40 152 69 183 24 24 42 32 81 37 7 0 24 -4 38 -11z"/>
<path d="M2772 847 c-120 -44 -172 -179 -128 -331 18 -59 42 -86 106 -115 110
-50 192 -9 252 125 27 63 22 158 -14 235 -22 49 -31 58 -69 72 -64 23 -110 27
-147 14z m94 -37 c28 -11 46 -41 78 -128 33 -94 33 -123 -5 -188 -59 -103 -96
-109 -181 -26 l-60 58 -5 82 c-4 56 -2 96 7 122 13 40 30 54 30 25 0 -28 40
-95 58 -96 46 -3 77 17 84 56 7 34 -9 55 -42 55 -32 0 -43 -11 -34 -34 9 -23
24 -20 24 5 0 29 34 21 38 -9 7 -47 -48 -71 -80 -34 -37 41 -34 101 4 120 22
10 39 8 84 -8z"/>
<path d="M984 839 c-36 -10 -63 -37 -65 -65 -5 -45 2 -65 26 -76 45 -20 117
27 94 63 -7 11 -9 10 -9 -7 0 -28 -19 -44 -52 -44 -36 0 -44 20 -24 58 15 29
68 62 100 62 27 0 84 -32 95 -54 13 -25 41 -129 36 -134 -2 -2 -19 8 -38 22
-68 52 -122 43 -212 -36 -39 -35 -45 -45 -45 -80 0 -49 42 -140 78 -168 44
-35 92 -27 167 30 55 42 65 46 60 28 -4 -13 -17 -33 -28 -45 l-20 -23 64 0
c80 0 101 11 54 29 l-35 12 6 157 c7 156 7 157 -20 210 -17 33 -36 56 -52 62
-31 12 -138 11 -180 -1z m126 -179 c21 -11 46 -30 54 -42 24 -33 31 -85 15
-105 -25 -30 -131 -103 -150 -103 -23 0 -56 51 -65 98 -10 53 4 99 42 137 40
41 51 42 104 15z"/>
<path d="M1717 843 l-69 -4 7 -42 7 -42 -44 43 c-32 31 -52 42 -75 42 -41 0
-121 -35 -156 -68 -57 -55 -77 -219 -34 -283 34 -51 94 -88 153 -95 49 -6 52
-5 90 32 21 22 45 48 51 59 11 16 12 -7 10 -130 -2 -173 -7 -186 -85 -236 -38
-24 -54 -29 -82 -24 -102 18 -120 37 -120 135 0 67 15 90 59 90 29 0 81 -39
81 -61 0 -20 -41 -58 -56 -52 -8 3 -14 16 -14 29 0 25 15 33 23 12 3 -8 6 -6
6 5 1 24 -36 22 -44 -3 -18 -57 31 -87 75 -45 38 37 42 59 16 97 -17 26 -30
34 -60 36 -22 2 -50 1 -63 -3 -37 -9 -63 -61 -63 -125 0 -96 49 -146 154 -157
62 -6 137 25 204 86 40 37 42 41 42 97 0 33 -4 86 -10 119 -12 74 -20 371 -11
405 4 16 23 34 53 50 57 31 67 41 42 38 -10 -1 -50 -3 -87 -5z m-137 -52 c0
-3 15 -24 34 -46 33 -38 46 -77 46 -141 0 -62 -104 -174 -162 -174 -56 0 -81
51 -94 191 -6 66 -4 80 16 120 28 54 22 48 66 64 36 12 94 4 94 -14z"/>
</g>
</svg>
